<svg xmlns="http://www.w3.org/2000/svg" xmlns:xlink="http://www.w3.org/1999/xlink" width="375" height="812" viewBox="0 0 375 812">
  <defs>
    <clipPath id="clip-login_">
      <rect width="375" height="812"/>
    </clipPath>
  </defs>
  <g id="login_" data-name="login " clip-path="url(#clip-login_)">
    <rect width="375" height="812" fill="#fff"/>
    <path id="Path_2" data-name="Path 2" d="M0,0S271.24-105.222,373.3,0,13.8,361.474,0,285.99,0,0,0,0Z" transform="translate(1.435 0.609)" fill="#ff8080"/>
    <g id="Path_3" data-name="Path 3" transform="translate(-6.648 685)" fill="#ff8080">
      <path d="M 86.62535858154297 202.0850524902344 C 77.71685791015625 202.0850524902344 69.36595916748047 201.6510009765625 61.80456161499023 200.7949523925781 C 53.88001251220703 199.8977966308594 46.60420989990234 198.5123443603516 40.17935943603516 196.6772003173828 C 33.47296142578125 194.7616424560547 27.50886154174805 192.3032073974609 22.45266151428223 189.3701934814453 C 17.19376182556152 186.3196563720703 12.77076148986816 182.6705932617188 9.306561470031738 178.5244445800781 C 7.104111194610596 175.8884429931641 5.238611221313477 172.9907989501953 3.761911153793335 169.9120483398438 C 2.249310970306396 166.758544921875 1.101411104202271 163.3248443603516 0.3500610589981079 159.7064056396484 C -0.4197389483451843 155.9992065429688 -0.7952389121055603 151.9928436279297 -0.765938937664032 147.7985534667969 C -0.7359889149665833 143.5040435791016 -0.2808389365673065 138.8914489746094 0.5868110656738281 134.0888977050781 C 1.930361032485962 126.6520004272461 4.088961124420166 119.4055480957031 7.002661228179932 112.5508499145508 C 9.817211151123047 105.9293518066406 13.4129114151001 99.49324798583984 17.68981170654297 93.42134857177734 C 21.81486129760742 87.56510162353516 26.68526077270508 81.88909912109375 32.1656608581543 76.55104827880859 C 37.44081115722656 71.41290283203125 43.42306137084961 66.44960021972656 49.94626235961914 61.79909896850586 C 56.20981216430664 57.33359909057617 63.13956069946289 53.03704833984375 70.54311370849609 49.02870178222656 C 77.6319580078125 45.19075012207031 85.34365844726563 41.51494979858398 93.46395874023438 38.10345077514648 C 108.5941619873047 31.74690055847168 125.6980590820313 26.07184982299805 144.3004608154297 21.23584938049316 C 175.7405090332031 13.0625 212.0098571777344 7.09975004196167 252.1011047363281 3.513299942016602 C 267.9496459960938 2.095499992370605 284.4537048339844 1.048949956893921 301.1548461914063 0.402649998664856 C 314.6197509765625 -0.1184000000357628 328.2636108398438 -0.3826000094413757 341.70751953125 -0.3826000094413757 C 363.6324157714844 -0.3826000094413757 378.3806762695313 0.329226940870285 381.1482543945313 0.4738181233406067 L 381.1482543945313 133.6534118652344 C 379.1607360839844 134.3961791992188 368.1544799804688 138.4826354980469 351.2801513671875 144.2458038330078 C 334.1084594726563 150.1105041503906 307.1760559082031 158.9600982666016 276.3861694335938 167.8142547607422 C 241.7832183837891 177.7649536132813 209.4610595703125 185.6932067871094 180.3174133300781 191.3787536621094 C 163.0172576904297 194.7537994384766 146.6600036621094 197.3656463623047 131.7000579833984 199.1417999267578 C 115.2501602172852 201.0948028564453 100.0848617553711 202.0850524902344 86.62535858154297 202.0850524902344 Z" stroke="none"/>
      <path d="M 341.7073974609375 0.117431640625 C 328.2698974609375 0.117431640625 314.6325378417969 0.3814697265625 301.1741333007813 0.902313232421875 C 284.4813232421875 1.548248291015625 267.9857482910156 2.594268798828125 252.1455993652344 4.011322021484375 C 212.0816955566406 7.595306396484375 175.8396453857422 13.55331420898438 144.4262237548828 21.71974182128906 C 125.8468627929688 26.54974365234375 108.7658081054688 32.21710205078125 93.6575927734375 38.56442260742188 C 85.5523681640625 41.96957397460938 77.8555908203125 45.63821411132813 70.7811279296875 49.46841430664063 C 63.39559936523438 53.46699523925781 56.48336791992188 57.75262451171875 50.23648071289063 62.20620727539063 C 43.7340087890625 66.84199523925781 37.77142333984375 71.78878784179688 32.51449584960938 76.90921020507813 C 27.05612182617188 82.22578430175781 22.20590209960938 87.87815856933594 18.09860229492188 93.70932006835938 C 13.84194946289063 99.75236511230469 10.26358032226563 106.1573638916016 7.462799072265625 112.7464752197266 C 4.56365966796875 119.5669403076172 2.415740966796875 126.7774810791016 1.07879638671875 134.1777954101563 C 0.216278076171875 138.9522705078125 -0.2362060546875 143.5361022949219 -0.2659912109375 147.8020629882813 C -0.2950439453125 151.9610595703125 0.07696533203125 155.9320983886719 0.839599609375 159.604736328125 C 1.582763671875 163.1836242675781 2.71759033203125 166.5787353515625 4.21270751953125 169.6958312988281 C 5.67144775390625 172.7371520996094 7.514373779296875 175.5996856689453 9.690216064453125 178.2038879394531 C 13.11691284179688 182.3051147460938 17.4952392578125 185.9165344238281 22.7034912109375 188.9376831054688 C 27.7239990234375 191.8500061035156 33.64996337890625 194.2921600341797 40.316650390625 196.1964111328125 C 46.71505737304688 198.0240478515625 53.96353149414063 199.404052734375 61.86080932617188 200.298095703125 C 69.40359497070313 201.1520538330078 77.735595703125 201.5850524902344 86.62533569335938 201.5850524902344 C 100.0646514892578 201.5850524902344 115.2094421386719 200.5960540771484 131.6390075683594 198.6455230712891 C 146.5860137939453 196.8710021972656 162.9301147460938 194.2612609863281 180.2173309326172 190.8888397216797 C 209.3455963134766 185.2064208984375 241.6523284912109 177.2821044921875 276.2400512695313 167.3359985351563 C 307.0200805664063 158.4848327636719 333.9444274902344 149.6381072998047 351.1110534667969 143.775146484375 C 367.2194519042969 138.2736663818359 377.9794616699219 134.3003540039063 380.6482238769531 133.3062744140625 L 380.6482238769531 0.948883056640625 C 376.9457397460938 0.762939453125 362.5816345214844 0.117431640625 341.7073974609375 0.117431640625 M 341.7073974609375 -0.882598876953125 C 366.2853393554688 -0.882598876953125 381.6482238769531 0 381.6482238769531 0 L 381.6482238769531 134 C 381.6482238769531 134 199.6797027587891 202.5850830078125 86.62530517578125 202.5850830078125 C 30.0877685546875 202.5850830078125 -9.199432373046875 185.4450836181641 0.094757080078125 134 C 22.16287231445313 11.84854125976563 248.3687438964844 -0.882598876953125 341.7073974609375 -0.882598876953125 Z" stroke="none" fill="#707070"/>
    </g>
  </g>
</svg>
